<svg width="18" height="18" viewBox="0 0 18 18" fill="none" xmlns="http://www.w3.org/2000/svg">
<path d="M9.23021 17.5117L10.0036 16.7383C10.1867 16.5552 10.1867 16.2584 10.0036 16.0754L3.94384 10.0156L17.281 10.0156C17.5399 10.0156 17.7497 9.80575 17.7497 9.54688L17.7497 8.45313C17.7497 8.19427 17.5399 7.98438 17.281 7.98438L3.94384 7.98438L10.0036 1.92462C10.1867 1.74157 10.1867 1.44477 10.0036 1.26169L9.23021 0.488329C9.04716 0.305282 8.75036 0.305282 8.56728 0.488329L0.387041 8.66856C0.203994 8.85161 0.203994 9.14841 0.387041 9.33149L8.56728 17.5117C8.75033 17.6948 9.04712 17.6948 9.23021 17.5117Z" fill="white"/>
</svg>
